<?xml version="1.0" standalone="no"?>
<!DOCTYPE svg PUBLIC "-//W3C//DTD SVG 20010904//EN"
 "http://www.w3.org/TR/2001/REC-SVG-20010904/DTD/svg10.dtd">
<svg version="1.0" xmlns="http://www.w3.org/2000/svg"
 width="348.000000pt" height="328.000000pt" viewBox="0 0 348.000000 328.000000"
 preserveAspectRatio="xMidYMid meet">

<g transform="translate(0.000000,328.000000) scale(0.100000,-0.100000)"
fill="#000000" stroke="none">
<path d="M1820 2560 l0 -113 34 36 c18 20 37 33 41 29 5 -4 5 -1 0 7 -7 12
-10 11 -22 -4 -7 -11 -13 -15 -13 -10 0 5 -7 0 -15 -11 -14 -17 -15 -11 -14
74 1 51 -1 96 -5 99 -3 3 -6 -45 -6 -107z"/>
<path d="M2244 2608 l-19 -23 23 19 c21 18 27 26 19 26 -2 0 -12 -10 -23 -22z"/>
<path d="M2421 2614 c0 -11 3 -14 6 -6 3 7 2 16 -1 19 -3 4 -6 -2 -5 -13z"/>
<path d="M2708 2613 c7 -3 16 -2 19 1 4 3 -2 6 -13 5 -11 0 -14 -3 -6 -6z"/>
<path d="M2187 2574 c-15 -8 -46 -16 -67 -18 -50 -4 -59 -11 -19 -14 28 -2
119 30 119 42 0 8 -1 8 -33 -10z"/>
<path d="M1287 2569 c7 -7 15 -10 18 -7 3 3 -2 9 -12 12 -14 6 -15 5 -6 -5z"/>
<path d="M1500 2576 c0 -2 9 -6 20 -9 11 -3 18 -1 14 4 -5 9 -34 13 -34 5z"/>
<path d="M1701 2262 c-1 -303 0 -323 17 -318 9 3 29 8 45 12 l27 6 -1 257 c-1
141 -5 270 -10 286 -7 25 -7 22 -5 -17 2 -26 -1 -45 -5 -42 -4 2 -7 -18 -5
-46 3 -38 1 -49 -8 -40 -6 6 -11 16 -11 23 0 7 -7 12 -15 12 -12 0 -15 18 -18
85 -6 175 -10 95 -11 -218z"/>
<path d="M2670 2576 c0 -2 9 -6 20 -9 11 -3 18 -1 14 4 -5 9 -34 13 -34 5z"/>
<path d="M740 2561 c0 -5 8 -15 18 -22 15 -13 16 -12 4 3 -11 14 -10 17 5 21
14 4 13 5 -4 6 -13 0 -23 -3 -23 -8z"/>
<path d="M1030 2560 c-8 -5 -18 -6 -22 -4 -4 3 -8 0 -8 -6 0 -10 36 -5 49 6
10 9 -6 12 -19 4z"/>
<path d="M1130 2563 c0 -21 51 -73 94 -95 35 -18 62 -21 183 -24 149 -3 181
-11 223 -56 11 -12 20 -18 20 -12 0 18 -39 73 -63 89 -28 18 -113 29 -122 15
-3 -5 -14 -7 -25 -5 -12 2 -18 0 -15 -5 3 -5 15 -7 27 -5 11 3 18 1 14 -3 -11
-11 -64 -9 -62 3 2 5 1 7 -1 3 -3 -5 -14 -8 -24 -8 -11 0 -18 4 -15 8 3 5 -1
9 -9 9 -8 0 -12 -4 -9 -9 3 -4 0 -8 -6 -8 -8 0 -10 9 -6 23 5 20 0 25 -29 34
-42 13 -47 6 -6 -8 22 -8 28 -15 24 -29 -3 -11 -9 -17 -14 -14 -5 3 -6 11 -3
17 4 7 3 9 -1 4 -5 -4 -18 1 -29 10 -15 13 -14 10 3 -10 25 -27 25 -27 3 -24
-12 2 -25 7 -29 12 -5 4 -1 5 7 0 9 -5 12 -5 7 1 -5 5 -21 9 -35 9 -17 0 -26
5 -24 13 1 8 -2 11 -8 7 -5 -3 -10 -1 -10 5 0 6 -4 8 -10 5 -5 -3 -10 2 -10
11 0 10 -3 14 -7 10 -4 -3 -13 4 -20 16 -7 13 -12 18 -13 11z m360 -98 c0 -8
-2 -15 -4 -15 -2 0 -6 7 -10 15 -3 8 -1 15 4 15 6 0 10 -7 10 -15z m97 -12
c28 -18 30 -28 4 -14 -10 6 -21 7 -25 4 -3 -3 -6 -1 -6 5 0 6 -9 9 -20 7 -11
-2 -18 0 -15 6 4 5 2 9 -4 9 -5 0 -12 -6 -14 -12 -3 -8 -6 -5 -6 5 -1 16 4 18
31 11 18 -3 43 -13 55 -21z"/>
<path d="M1320 2560 c0 -5 5 -10 11 -10 5 0 7 5 4 10 -3 6 -8 10 -11 10 -2 0
-4 -4 -4 -10z"/>
<path d="M2430 2556 c38 -16 68 -20 56 -9 -3 4 -12 8 -19 9 -7 1 -25 5 -42 8
-28 6 -27 5 5 -8z"/>
<path d="M2725 2560 c6 -9 -29 -27 -68 -35 -9 -2 -21 -6 -26 -10 -5 -3 -12 -1
-16 4 -3 5 -14 8 -25 6 -11 -2 -20 0 -20 5 0 5 -8 6 -17 3 -27 -10 52 -33 90
-26 62 11 132 63 86 63 -6 0 -7 -5 -4 -10z"/>
<path d="M1350 2548 c0 -4 9 -8 20 -8 11 0 20 4 20 8 0 4 -9 8 -20 8 -11 0
-20 -4 -20 -8z"/>
<path d="M1406 2552 c-3 -5 1 -9 9 -9 8 0 12 4 9 9 -3 4 -7 8 -9 8 -2 0 -6 -4
-9 -8z"/>
<path d="M1446 2552 c-3 -5 1 -9 9 -9 8 0 12 4 9 9 -3 4 -7 8 -9 8 -2 0 -6 -4
-9 -8z"/>
<path d="M2332 2539 c-7 -11 -18 -17 -24 -13 -7 4 -8 3 -4 -4 6 -11 -6 -16
-26 -13 -5 0 -7 -4 -5 -11 3 -18 -25 -17 -48 1 -20 16 -20 16 -1 -7 l20 -23
-35 6 c-21 3 -29 2 -21 -3 11 -8 11 -10 -1 -15 -10 -4 -17 2 -20 15 -3 11 -10
17 -16 14 -5 -4 -12 -2 -16 4 -7 11 -89 13 -148 3 -31 -5 -38 -9 -34 -24 3
-11 1 -19 -4 -19 -5 0 -9 7 -9 16 0 11 -6 14 -22 9 -33 -10 -65 -43 -78 -78
l-10 -31 27 26 c36 33 66 48 97 48 14 0 26 6 26 13 0 8 3 8 8 1 4 -5 42 -11
85 -11 62 -1 77 2 73 13 -3 7 -1 16 3 19 5 2 11 -4 14 -14 4 -17 9 -18 47 -10
23 5 50 14 59 19 23 12 86 79 80 84 -3 3 -10 -4 -17 -15z m-197 -69 c2 -11 -7
-15 -31 -15 -20 0 -33 4 -30 10 2 6 -6 11 -18 12 -11 0 -15 -1 -8 -4 25 -10
11 -20 -20 -16 -18 3 -41 5 -50 5 -26 -1 -22 16 5 21 12 3 51 4 86 3 49 -1 65
-5 66 -16z m-207 -11 c-2 -6 -8 -11 -13 -11 -6 0 -16 -4 -22 -10 -8 -6 -13 -7
-13 -1 0 6 10 15 23 21 29 14 29 14 25 1z"/>
<path d="M2096 2468 c3 -5 10 -6 15 -3 13 9 11 12 -6 12 -8 0 -12 -4 -9 -9z"/>
<path d="M1230 2546 c0 -2 8 -10 18 -17 15 -13 16 -12 3 4 -13 16 -21 21 -21
13z"/>
<path d="M1508 2538 c5 -5 16 -8 23 -6 8 3 3 7 -10 11 -17 4 -21 3 -13 -5z"/>
<path d="M2504 2538 c-3 -4 2 -8 10 -8 8 0 17 4 20 8 3 5 -2 9 -10 9 -8 0 -17
-4 -20 -9z"/>
<path d="M780 2529 c0 -14 88 -29 112 -19 22 10 22 10 1 6 -12 -2 -24 1 -27 8
-3 8 -5 8 -5 0 -1 -6 -12 -9 -26 -6 -14 2 -23 7 -21 11 3 4 -4 7 -15 7 -10 0
-19 -3 -19 -7z"/>
<path d="M920 2526 c7 -7 13 -7 20 0 6 6 3 10 -10 10 -13 0 -16 -4 -10 -10z"/>
<path d="M1550 2533 c0 -1 15 -10 33 -19 17 -9 42 -26 55 -37 l22 -20 0 41 c0
23 -4 42 -8 42 -5 0 -6 -14 -4 -31 3 -22 1 -30 -7 -25 -6 4 -9 12 -5 17 3 5 2
9 -3 8 -20 -3 -34 2 -28 11 4 6 -1 7 -11 3 -10 -4 -15 -2 -11 3 3 5 -3 10 -14
10 -10 0 -19 -1 -19 -3z"/>
<path d="M1906 2528 c3 -4 11 -5 19 -1 21 7 19 12 -4 10 -11 0 -18 -5 -15 -9z"/>
<path d="M2200 2525 c-14 -8 -20 -14 -14 -15 5 0 19 7 30 15 24 18 16 19 -16
0z"/>
<path d="M1090 2524 c0 -6 6 -17 14 -23 12 -10 14 -28 6 -51 -1 -3 -6 6 -10
20 -7 23 -8 23 -9 3 -1 -22 -15 -36 -39 -39 -6 -1 -10 2 -7 6 3 5 0 12 -6 16
-7 4 -9 3 -5 -4 3 -6 2 -13 -3 -16 -5 -3 -11 3 -14 14 -3 10 -2 21 2 23 3 2 1
2 -6 1 -7 -2 -15 1 -18 6 -8 13 -25 13 -25 0 0 -5 6 -9 13 -7 6 1 11 -4 9 -11
-1 -8 2 -11 8 -7 5 3 10 1 10 -4 0 -6 -7 -11 -15 -11 -8 0 -15 5 -15 10 0 6
-6 9 -12 8 -7 -2 -12 3 -10 10 1 6 -7 12 -19 12 -29 0 -14 -19 35 -41 53 -24
83 -24 141 1 47 20 47 20 26 38 -11 9 -27 26 -36 37 -8 11 -15 15 -15 9z m45
-53 c3 -5 2 -12 -3 -15 -5 -3 -9 1 -9 9 0 17 3 19 12 6z"/>
<path d="M2356 2494 c-16 -19 -27 -36 -25 -37 2 -1 21 -10 42 -20 47 -21 87
-22 135 -1 36 16 37 16 13 25 -13 5 -21 12 -18 15 3 3 15 0 27 -6 14 -8 26 -8
32 -2 6 6 -5 11 -28 15 -42 7 -53 2 -36 -15 7 -7 12 -17 12 -22 -1 -6 -9 -1
-19 11 -16 19 -20 20 -25 7 -3 -8 -2 -12 3 -9 5 3 12 1 16 -5 3 -6 -5 -11 -19
-11 -14 -1 -32 -2 -38 -3 -14 -2 -37 23 -38 38 0 5 11 -1 24 -13 l24 -23 11
21 c7 12 10 21 9 22 -29 8 -39 6 -29 -4 19 -19 12 -31 -9 -12 -11 10 -17 22
-14 27 3 4 0 7 -8 6 -8 -2 -12 4 -10 15 4 23 2 22 -32 -19z m28 -15 c-3 -5 -1
-16 6 -24 9 -11 7 -12 -10 -8 -27 7 -34 21 -20 38 13 16 34 10 24 -6z"/>
<path d="M1048 2513 c-10 -2 -18 -9 -18 -14 0 -6 10 -5 23 2 37 20 36 23 -5
12z"/>
<path d="M2430 2505 c46 -18 64 -17 25 0 -16 8 -37 14 -45 14 -8 0 1 -7 20
-14z"/>
<path d="M2140 2506 c0 -2 9 -6 20 -9 11 -3 18 -1 14 4 -5 9 -34 13 -34 5z"/>
<path d="M1067 2494 c-3 -3 -3 -13 1 -22 5 -15 4 -15 -13 -2 -17 14 -17 14 -4
-7 15 -26 21 -23 24 12 3 26 2 29 -8 19z"/>
<path d="M1378 2493 c18 -2 45 -2 60 0 15 2 0 4 -33 4 -33 0 -45 -2 -27 -4z"/>
<path d="M1729 2486 c0 -1 -2 -9 -4 -19 -3 -18 -3 -18 16 -1 10 9 19 18 19 19
0 2 -29 3 -31 1z"/>
<path d="M1747 2450 c-8 -11 -16 -18 -18 -15 -3 2 -5 -5 -5 -15 0 -10 2 -17 5
-15 2 3 10 0 17 -6 10 -8 12 -5 8 16 -3 15 0 33 7 41 6 8 9 14 6 14 -3 0 -12
-9 -20 -20z"/>
<path d="M1146 2412 c-30 -14 -35 -20 -25 -28 41 -33 70 -39 229 -45 188 -8
231 -18 278 -65 28 -28 32 -29 26 -11 -17 56 -34 85 -63 110 -31 26 -37 27
-154 27 -67 1 -140 5 -162 10 -22 5 -51 11 -65 14 -14 3 -42 -3 -64 -12z m78
-32 c5 -21 3 -20 -9 5 -13 28 -16 29 -19 6 -3 -26 -23 -31 -42 -10 -10 13 -14
19 -7 16 6 -4 14 -3 18 3 4 6 10 8 15 5 5 -3 12 0 15 6 9 14 21 1 29 -31z m29
1 c-4 -13 -2 -12 10 2 14 16 15 16 21 1 4 -9 4 -19 1 -22 -3 -3 -5 1 -5 8 0 9
-7 7 -22 -6 -13 -10 -20 -15 -16 -10 4 5 3 16 -2 26 -6 12 -5 17 5 17 7 0 11
-7 8 -16z m63 -6 c-1 -8 -5 -17 -8 -21 -5 -4 -4 16 1 34 3 9 9 -1 7 -13z m27
0 c4 -8 3 -16 -1 -19 -4 -3 -9 4 -9 15 -2 23 3 25 10 4z m30 -4 c-3 -11 0 -10
11 3 9 11 16 15 16 9 0 -6 -6 -16 -14 -22 -12 -10 -17 -8 -25 7 -7 14 -7 19 4
19 7 0 11 -7 8 -16z m59 1 c-3 -10 -1 -13 6 -8 6 3 13 2 16 -3 4 -5 -1 -8 -10
-7 -21 3 -39 33 -20 33 8 0 12 -7 8 -15z m42 7 c-2 -4 0 -10 5 -13 5 -4 12 2
14 11 4 16 5 16 6 1 2 -25 -14 -30 -33 -9 -13 15 -14 18 -1 18 8 0 12 -4 9 -8z
m64 -14 c-3 -30 -2 -29 -19 -8 -10 11 -10 14 -1 9 7 -4 12 -1 12 8 0 9 2 16 5
16 3 0 4 -11 3 -25z"/>
<path d="M1166 2391 c-4 -5 -2 -12 3 -15 5 -4 12 -2 15 3 4 5 2 12 -3 15 -5 4
-12 2 -15 -3z"/>
<path d="M2230 2414 c-25 -7 -101 -13 -170 -13 -147 -1 -179 -14 -210 -84 -27
-59 -25 -69 9 -38 23 21 27 29 17 41 -9 13 -9 13 6 1 14 -11 24 -11 50 -1 18
7 110 15 203 19 94 3 175 10 182 14 13 8 12 24 -2 47 -8 13 -7 13 8 1 9 -7 14
-17 11 -22 -9 -14 12 -10 25 5 9 10 3 17 -32 30 -23 9 -45 15 -47 15 -3 -1
-25 -7 -50 -15z m80 -38 c-1 -6 -7 0 -14 13 -8 14 -16 19 -20 13 -3 -6 -2 -13
4 -17 5 -3 10 -11 10 -17 0 -5 -9 0 -20 13 -10 13 -19 19 -20 14 0 -6 5 -16
10 -21 7 -7 6 -11 -3 -11 -8 0 -14 10 -13 21 1 12 6 21 13 21 6 0 15 4 19 8 9
9 34 -20 34 -37z m-83 0 c1 -12 -1 -15 -4 -8 -3 6 -8 10 -12 8 -4 -3 -8 1 -8
8 0 22 23 14 24 -8z m-270 -5 c-1 -15 -4 -17 -14 -9 -15 12 -17 22 -3 13 6 -3
10 -1 10 4 0 6 2 11 4 11 3 0 4 -9 3 -19z m29 4 c-1 -8 -5 -17 -8 -21 -5 -4
-4 16 1 34 3 9 9 -1 7 -13z m32 -4 c-7 -9 -13 -18 -15 -20 -1 -2 -1 5 0 16 0
11 7 20 14 20 10 0 10 -4 1 -16z m18 -9 c-17 -16 -18 -16 -5 5 7 12 15 20 18
17 3 -2 -3 -12 -13 -22z m54 23 c0 -1 -10 -10 -22 -21 -14 -12 -18 -13 -10 -3
6 9 10 18 7 21 -3 2 2 5 10 5 8 0 15 -1 15 -2z m6 -23 c-17 -16 -18 -16 -5 5
7 12 15 20 18 17 3 -2 -3 -12 -13 -22z m54 23 c0 -1 -10 -10 -22 -21 -14 -12
-18 -13 -10 -3 6 9 10 18 7 21 -3 2 2 5 10 5 8 0 15 -1 15 -2z m6 -23 c-17
-16 -18 -16 -5 5 7 12 15 20 18 17 3 -2 -3 -12 -13 -22z m26 -4 c-8 -8 -9 -4
-5 13 4 13 8 18 11 10 2 -7 -1 -18 -6 -23z m-251 -5 c13 -16 12 -17 -3 -4 -10
7 -18 15 -18 17 0 8 8 3 21 -13z"/>
<path d="M1265 2262 c-27 -9 -66 -33 -87 -53 -34 -33 -38 -41 -38 -88 0 -67
32 -116 106 -160 57 -35 216 -100 245 -101 9 0 36 11 60 24 24 13 62 29 83 36
l39 13 -94 23 c-126 32 -246 72 -292 98 -70 38 -82 102 -26 131 42 22 78 18
117 -12 47 -36 96 -52 159 -53 71 0 74 15 6 31 -84 21 -84 42 1 35 59 -5 66
-4 66 13 0 25 -28 48 -79 66 -58 20 -200 18 -266 -3z m241 -23 c10 -18 -13
-32 -40 -25 -37 9 -34 36 3 36 17 0 33 -5 37 -11z"/>
<path d="M1958 2269 c-42 -12 -88 -50 -88 -73 0 -13 11 -14 65 -10 54 5 65 3
65 -10 0 -10 -18 -18 -60 -27 -73 -14 -69 -29 9 -29 57 0 88 12 176 65 63 37
146 -8 131 -70 -14 -57 -131 -104 -456 -185 -179 -44 -252 -74 -312 -128 -61
-56 -90 -113 -96 -192 -7 -107 37 -188 140 -257 l37 -25 28 20 c16 11 44 26
63 34 l35 15 -46 20 c-185 82 -194 249 -19 338 26 13 120 42 207 64 353 89
486 161 509 278 4 23 0 45 -16 77 -17 37 -32 50 -78 73 -49 24 -70 28 -157 30
-55 1 -117 -3 -137 -8z m87 -28 c8 -14 -32 -33 -55 -26 -21 7 -25 17 -13 28
10 10 61 8 68 -2z"/>
<path d="M1884 1798 l-72 -20 51 -27 c27 -14 64 -43 81 -64 27 -33 31 -47 31
-96 0 -94 -51 -140 -230 -210 -170 -66 -240 -127 -265 -231 -21 -90 8 -170 86
-239 26 -23 50 -40 54 -39 3 2 41 21 83 43 l77 40 0 143 c0 108 3 142 13 142
19 0 85 -48 98 -72 55 -103 12 -183 -142 -263 -108 -56 -151 -91 -178 -149
-43 -87 -11 -220 63 -266 48 -29 52 -25 17 15 -56 64 -65 159 -21 230 17 27
42 45 108 76 144 67 152 72 194 112 79 77 99 177 54 272 -13 28 -35 61 -49 73
l-25 24 -106 -37 -105 -38 -3 -149 -3 -149 -40 30 c-73 54 -103 137 -71 199
32 61 82 93 212 136 82 27 180 79 222 119 12 11 34 45 49 75 33 67 35 157 5
224 -21 49 -83 118 -103 117 -8 0 -46 -10 -85 -21z"/>
<path d="M1733 1759 l-33 -10 0 -175 c0 -164 1 -176 18 -169 9 4 28 11 42 16
l25 9 3 170 c4 185 7 177 -55 159z"/>
<path d="M1777 798 l-68 -31 2 -211 c3 -257 15 -466 27 -478 18 -18 25 81 38
502 3 113 8 207 10 209 9 9 58 -36 75 -69 22 -40 25 -115 7 -157 -6 -15 -23
-40 -37 -55 -32 -36 -23 -44 20 -16 75 50 105 178 61 265 -22 42 -48 74 -60
72 -4 0 -38 -15 -75 -31z"/>
</g>
</svg>
